<svg width="48" height="48" viewBox="0 0 48 48" fill="none" xmlns="http://www.w3.org/2000/svg">
  <!-- GitHub Logo -->
  <rect width="48" height="48" rx="8" fill="#24292e"/>
  <path d="M24 8 C15.163 8 8 15.163 8 24 C8 31.137 12.717 37.187 19.2 39.2 C20 39.35 20.3 38.85 20.3 38.4 C20.3 38 20.3 36.9 20.3 35.4 C15.7 36.4 14.7 33.2 14.7 33.2 C14 31.5 12.9 31 12.9 31 C11.3 29.9 13 30 13 30 C14.7 30.1 15.6 31.7 15.6 31.7 C17.2 34.3 19.8 33.5 20.3 33.2 C20.5 32.1 20.9 31.3 21.4 30.9 C17.9 30.5 14.2 29.1 14.2 22.4 C14.2 20.8 14.8 19.5 15.6 18.5 C15.4 18.1 14.8 16.4 15.8 14.1 C15.8 14.1 17.3 13.6 20.3 15.5 C21.7 15.1 23.4 14.9 25 14.9 C26.6 14.9 28.3 15.1 29.7 15.5 C32.7 13.6 34.2 14.1 34.2 14.1 C35.2 16.4 34.6 18.1 34.4 18.5 C35.2 19.5 35.8 20.8 35.8 22.4 C35.8 29.1 32.1 30.5 28.6 30.9 C29.2 31.4 29.7 32.4 29.7 33.9 C29.7 36.1 29.7 37.9 29.7 38.4 C29.7 38.85 30 39.35 30.8 39.2 C37.283 37.187 42 31.137 42 24 C42 15.163 34.837 8 26 8 Z" fill="white"/>
</svg>
