<svg xmlns="http://www.w3.org/2000/svg" viewBox="0 0 24 24" fill="none" stroke="currentColor" stroke-width="2" stroke-linecap="round" stroke-linejoin="round">
  <!-- Computer/Local icon -->
  <rect x="2" y="3" width="20" height="14" rx="2" ry="2" fill="#4F46E5" stroke="#4F46E5"/>
  <rect x="4" y="5" width="16" height="10" rx="1" ry="1" fill="white"/>
  <line x1="8" y1="21" x2="16" y2="21" stroke="#4F46E5"/>
  <line x1="12" y1="17" x2="12" y2="21" stroke="#4F46E5"/>
  
  <!-- Neural network dots -->
  <circle cx="7" cy="8" r="1" fill="#4F46E5"/>
  <circle cx="12" cy="8" r="1" fill="#4F46E5"/>
  <circle cx="17" cy="8" r="1" fill="#4F46E5"/>
  <circle cx="7" cy="12" r="1" fill="#4F46E5"/>
  <circle cx="12" cy="12" r="1" fill="#4F46E5"/>
  <circle cx="17" cy="12" r="1" fill="#4F46E5"/>
  
  <!-- Connection lines -->
  <line x1="7" y1="8" x2="12" y2="8" stroke="#4F46E5" stroke-width="1"/>
  <line x1="12" y1="8" x2="17" y2="8" stroke="#4F46E5" stroke-width="1"/>
  <line x1="7" y1="12" x2="12" y2="12" stroke="#4F46E5" stroke-width="1"/>
  <line x1="12" y1="12" x2="17" y2="12" stroke="#4F46E5" stroke-width="1"/>
  <line x1="7" y1="8" x2="7" y2="12" stroke="#4F46E5" stroke-width="1"/>
  <line x1="12" y1="8" x2="12" y2="12" stroke="#4F46E5" stroke-width="1"/>
  <line x1="17" y1="8" x2="17" y2="12" stroke="#4F46E5" stroke-width="1"/>
</svg>
